# xmcd
#
# Track frame offsets: 
#        150
#        14068
#        27145
#        41089
#        53680
#        67357
#        83682
#        95796
#        112347
#        126717
#        149257
#        166704
#        176946
#        192600
#        203851
#        217532
#
# Disc length: 3095 seconds
#
# Revision: 0
# Processed by: cddbd v1.5.2PL0 Copyright (c) Steve Scherf et al.
# Submitted via: ExactAudioCopy v0.95b4
#
DISCID=f80c1510
DTITLE=Flávio Monteiro - Canções Inesqueciveis
DYEAR=1900
DGENRE=Folk
TTITLE0=Quero beijar-te as mãos
TTITLE1=A saudade mata a gente
TTITLE2=Quase
TTITLE3=Tortura de amor
TTITLE4=A beleza da rosa
TTITLE5=De menor
TTITLE6=Senhor da floresta
TTITLE7=Re Roberto Becker ara Flávio Monteiro
TTITLE8=Lado a Lado
TTITLE9=Sonhei com você
TTITLE10=Cadeira vazia
TTITLE11=Pertinho de quem amo, sem poder amar
TTITLE12=Dez anos
TTITLE13=Sonhando contigo
TTITLE14=Índio do Uruguai
TTITLE15=Regresso
EXTD=
EXTT0=
EXTT1=
EXTT2=
EXTT3=
EXTT4=
EXTT5=
EXTT6=
EXTT7=
EXTT8=
EXTT9=
EXTT10=
EXTT11=
EXTT12=
EXTT13=
EXTT14=
EXTT15=
PLAYORDER=
